<mxfile host="app.diagrams.net" agent="Mozilla/5.0 (Macintosh; Intel Mac OS X 10_15_7) AppleWebKit/537.36 (KHTML, like Gecko) Chrome/128.0.0.0 Safari/537.36" version="26.0.6">
  <diagram name="第 1 页" id="B19lqQF7ZLv3iGEl4pno">
    <mxGraphModel dx="794" dy="505" grid="1" gridSize="10" guides="1" tooltips="1" connect="1" arrows="1" fold="1" page="1" pageScale="1" pageWidth="827" pageHeight="1169" math="0" shadow="0">
      <root>
        <mxCell id="0" />
        <mxCell id="1" parent="0" />
        <mxCell id="USdQ7BjOs3rJQ4mpbsZk-3" style="edgeStyle=orthogonalEdgeStyle;rounded=0;hachureGap=4;orthogonalLoop=1;jettySize=auto;html=1;fontFamily=Architects Daughter;fontSource=https%3A%2F%2Ffonts.googleapis.com%2Fcss%3Ffamily%3DArchitects%2BDaughter;" edge="1" parent="1" source="USdQ7BjOs3rJQ4mpbsZk-1" target="USdQ7BjOs3rJQ4mpbsZk-2">
          <mxGeometry relative="1" as="geometry" />
        </mxCell>
        <mxCell id="USdQ7BjOs3rJQ4mpbsZk-1" value="商业" style="rounded=1;whiteSpace=wrap;html=1;hachureGap=4;fontFamily=Architects Daughter;fontSource=https%3A%2F%2Ffonts.googleapis.com%2Fcss%3Ffamily%3DArchitects%2BDaughter;" vertex="1" parent="1">
          <mxGeometry x="120" y="360" width="80" height="40" as="geometry" />
        </mxCell>
        <mxCell id="USdQ7BjOs3rJQ4mpbsZk-9" style="edgeStyle=orthogonalEdgeStyle;shape=connector;rounded=0;hachureGap=4;orthogonalLoop=1;jettySize=auto;html=1;strokeColor=default;align=center;verticalAlign=middle;fontFamily=Architects Daughter;fontSource=https%3A%2F%2Ffonts.googleapis.com%2Fcss%3Ffamily%3DArchitects%2BDaughter;fontSize=11;fontColor=default;labelBackgroundColor=default;endArrow=classic;" edge="1" parent="1" source="USdQ7BjOs3rJQ4mpbsZk-2" target="USdQ7BjOs3rJQ4mpbsZk-4">
          <mxGeometry relative="1" as="geometry" />
        </mxCell>
        <mxCell id="USdQ7BjOs3rJQ4mpbsZk-10" style="edgeStyle=orthogonalEdgeStyle;shape=connector;rounded=0;hachureGap=4;orthogonalLoop=1;jettySize=auto;html=1;entryX=0;entryY=0.5;entryDx=0;entryDy=0;strokeColor=default;align=center;verticalAlign=middle;fontFamily=Architects Daughter;fontSource=https%3A%2F%2Ffonts.googleapis.com%2Fcss%3Ffamily%3DArchitects%2BDaughter;fontSize=11;fontColor=default;labelBackgroundColor=default;endArrow=classic;" edge="1" parent="1" source="USdQ7BjOs3rJQ4mpbsZk-2" target="USdQ7BjOs3rJQ4mpbsZk-5">
          <mxGeometry relative="1" as="geometry" />
        </mxCell>
        <mxCell id="USdQ7BjOs3rJQ4mpbsZk-11" style="edgeStyle=orthogonalEdgeStyle;shape=connector;rounded=0;hachureGap=4;orthogonalLoop=1;jettySize=auto;html=1;entryX=0;entryY=0.5;entryDx=0;entryDy=0;strokeColor=default;align=center;verticalAlign=middle;fontFamily=Architects Daughter;fontSource=https%3A%2F%2Ffonts.googleapis.com%2Fcss%3Ffamily%3DArchitects%2BDaughter;fontSize=11;fontColor=default;labelBackgroundColor=default;endArrow=classic;" edge="1" parent="1" source="USdQ7BjOs3rJQ4mpbsZk-2" target="USdQ7BjOs3rJQ4mpbsZk-6">
          <mxGeometry relative="1" as="geometry" />
        </mxCell>
        <mxCell id="USdQ7BjOs3rJQ4mpbsZk-12" style="edgeStyle=orthogonalEdgeStyle;shape=connector;rounded=0;hachureGap=4;orthogonalLoop=1;jettySize=auto;html=1;entryX=0;entryY=0.5;entryDx=0;entryDy=0;strokeColor=default;align=center;verticalAlign=middle;fontFamily=Architects Daughter;fontSource=https%3A%2F%2Ffonts.googleapis.com%2Fcss%3Ffamily%3DArchitects%2BDaughter;fontSize=11;fontColor=default;labelBackgroundColor=default;endArrow=classic;" edge="1" parent="1" source="USdQ7BjOs3rJQ4mpbsZk-2" target="USdQ7BjOs3rJQ4mpbsZk-7">
          <mxGeometry relative="1" as="geometry" />
        </mxCell>
        <mxCell id="USdQ7BjOs3rJQ4mpbsZk-13" style="edgeStyle=orthogonalEdgeStyle;shape=connector;rounded=0;hachureGap=4;orthogonalLoop=1;jettySize=auto;html=1;entryX=0;entryY=0.5;entryDx=0;entryDy=0;strokeColor=default;align=center;verticalAlign=middle;fontFamily=Architects Daughter;fontSource=https%3A%2F%2Ffonts.googleapis.com%2Fcss%3Ffamily%3DArchitects%2BDaughter;fontSize=11;fontColor=default;labelBackgroundColor=default;endArrow=classic;" edge="1" parent="1" source="USdQ7BjOs3rJQ4mpbsZk-2" target="USdQ7BjOs3rJQ4mpbsZk-8">
          <mxGeometry relative="1" as="geometry" />
        </mxCell>
        <mxCell id="USdQ7BjOs3rJQ4mpbsZk-2" value="环节" style="rounded=1;whiteSpace=wrap;html=1;hachureGap=4;fontFamily=Architects Daughter;fontSource=https%3A%2F%2Ffonts.googleapis.com%2Fcss%3Ffamily%3DArchitects%2BDaughter;" vertex="1" parent="1">
          <mxGeometry x="280" y="360" width="80" height="40" as="geometry" />
        </mxCell>
        <mxCell id="USdQ7BjOs3rJQ4mpbsZk-4" value="销售" style="rounded=1;whiteSpace=wrap;html=1;hachureGap=4;fontFamily=Architects Daughter;fontSource=https%3A%2F%2Ffonts.googleapis.com%2Fcss%3Ffamily%3DArchitects%2BDaughter;" vertex="1" parent="1">
          <mxGeometry x="440" y="360" width="80" height="40" as="geometry" />
        </mxCell>
        <mxCell id="USdQ7BjOs3rJQ4mpbsZk-5" value="营销" style="rounded=1;whiteSpace=wrap;html=1;hachureGap=4;fontFamily=Architects Daughter;fontSource=https%3A%2F%2Ffonts.googleapis.com%2Fcss%3Ffamily%3DArchitects%2BDaughter;" vertex="1" parent="1">
          <mxGeometry x="440" y="280" width="80" height="40" as="geometry" />
        </mxCell>
        <mxCell id="USdQ7BjOs3rJQ4mpbsZk-6" value="价值创造" style="rounded=1;whiteSpace=wrap;html=1;hachureGap=4;fontFamily=Architects Daughter;fontSource=https%3A%2F%2Ffonts.googleapis.com%2Fcss%3Ffamily%3DArchitects%2BDaughter;" vertex="1" parent="1">
          <mxGeometry x="440" y="200" width="80" height="40" as="geometry" />
        </mxCell>
        <mxCell id="USdQ7BjOs3rJQ4mpbsZk-7" value="价值传递" style="rounded=1;whiteSpace=wrap;html=1;hachureGap=4;fontFamily=Architects Daughter;fontSource=https%3A%2F%2Ffonts.googleapis.com%2Fcss%3Ffamily%3DArchitects%2BDaughter;" vertex="1" parent="1">
          <mxGeometry x="440" y="440" width="80" height="40" as="geometry" />
        </mxCell>
        <mxCell id="USdQ7BjOs3rJQ4mpbsZk-8" value="财务" style="rounded=1;whiteSpace=wrap;html=1;hachureGap=4;fontFamily=Architects Daughter;fontSource=https%3A%2F%2Ffonts.googleapis.com%2Fcss%3Ffamily%3DArchitects%2BDaughter;" vertex="1" parent="1">
          <mxGeometry x="440" y="520" width="80" height="40" as="geometry" />
        </mxCell>
      </root>
    </mxGraphModel>
  </diagram>
</mxfile>
